<?xml version="1.0" encoding="UTF-8" standalone="no"?>
<!-- Created with Inkscape (http://www.inkscape.org/) -->

<svg
   width="270.93332mm"
   height="270.93332mm"
   viewBox="0 0 270.93332 270.93332"
   version="1.1"
   id="svg1"
   xml:space="preserve"
   inkscape:version="1.3.2 (091e20e, 2023-11-25, custom)"
   sodipodi:docname="logo-right.svg"
   xmlns:inkscape="http://www.inkscape.org/namespaces/inkscape"
   xmlns:sodipodi="http://sodipodi.sourceforge.net/DTD/sodipodi-0.dtd"
   xmlns="http://www.w3.org/2000/svg"
   xmlns:svg="http://www.w3.org/2000/svg"><sodipodi:namedview
     id="namedview1"
     pagecolor="#ffffff"
     bordercolor="#000000"
     borderopacity="0.25"
     inkscape:showpageshadow="2"
     inkscape:pageopacity="0.0"
     inkscape:pagecheckerboard="0"
     inkscape:deskcolor="#d1d1d1"
     inkscape:document-units="mm"
     inkscape:zoom="0.74208052"
     inkscape:cx="561.93363"
     inkscape:cy="497.9244"
     inkscape:window-width="1920"
     inkscape:window-height="1009"
     inkscape:window-x="-8"
     inkscape:window-y="-8"
     inkscape:window-maximized="1"
     inkscape:current-layer="g263" /><defs
     id="defs1"><inkscape:path-effect
       effect="simplify"
       id="path-effect267"
       is_visible="true"
       lpeversion="1.3"
       threshold="60.123036"
       steps="30.895833"
       smooth_angles="292.5"
       helper_size="10"
       simplify_individual_paths="false"
       simplify_just_coalesce="false" /><inkscape:path-effect
       effect="simplify"
       id="path-effect266"
       is_visible="true"
       lpeversion="1.3"
       threshold="78.573571"
       steps="1"
       smooth_angles="360"
       helper_size="10"
       simplify_individual_paths="false"
       simplify_just_coalesce="false" /><inkscape:path-effect
       effect="simplify"
       id="path-effect265"
       is_visible="true"
       lpeversion="1.3"
       threshold="16.079821"
       steps="8.5833333"
       smooth_angles="360"
       helper_size="10"
       simplify_individual_paths="false"
       simplify_just_coalesce="false" /></defs><g
     inkscape:groupmode="layer"
     id="layer1"
     inkscape:label="Layer 1"><g
       id="g263"
       transform="translate(57.596599,-13.002078)"><path
         id="path263"
         style="display:inline;fill:#113139;stroke-width:1.47613"
         d="m 91.635716,40.831072 c 13.792264,0.859071 18.758544,15.722868 23.034844,26.569535 5.8571,15.883637 13.61775,32.741293 10.4222,50.042343 -4.69681,12.0474 -20.96947,3.65299 -27.447166,-2.72656 -6.543342,-8.36518 -18.252054,-8.47991 -23.740613,0.97557 -4.770793,11.30315 2.655119,24.16729 11.30754,31.43012 10.912876,9.44095 25.608409,3.8093 37.959899,1.25227 10.33935,-2.88384 14.70781,9.48744 18.14068,16.8092 9.96889,22.60929 13.73595,47.61551 25.74756,69.3784 10.50542,5.15949 11.56532,32.10765 -1.7321,29.41491 -12.69869,-3.09179 -24.00853,-23.93647 -29.32644,-34.52199 -5.79465,-13.35767 -7.87017,-29.96472 -20.92367,-38.3048 -12.52427,-9.10562 -30.890578,-7.82837 -42.056007,2.90829 -7.709042,6.9567 -12.070203,16.60456 -18.37401,24.73996 -7.583449,10.9297 -15.166898,21.85939 -22.750347,32.78909 -6.733115,6.8241 -21.309213,11.68647 -28.7060926,3.91156 -5.0510006,-8.69328 5.3088622,-13.97695 10.1190886,-16.45963 20.089853,-46.22908 29.7435,-96.07278 47.493286,-143.117282 6.945783,-13.982597 9.635312,-29.81122 17.061645,-43.498202 2.709397,-7.337308 7.608399,-10.445878 13.769703,-11.592784 z m 3.314721,41.642462 C 89.438759,93.618618 107.39071,100.87254 108.39174,89.534833 112.45802,78.72994 97.018759,72.377634 94.950437,82.473534 Z"
         sodipodi:nodetypes="ccccccccccccccccccccccc" /></g></g></svg>
