<?xml version="1.0" encoding="UTF-8" standalone="no"?>
<!-- Created with Inkscape (http://www.inkscape.org/) -->

<svg
   width="234.25325mm"
   height="197.30678mm"
   viewBox="0 0 234.25325 197.30678"
   version="1.1"
   id="svg1"
   xml:space="preserve"
   inkscape:version="1.3.2 (091e20e, 2023-11-25, custom)"
   sodipodi:docname="logo-right-1.svg"
   xmlns:inkscape="http://www.inkscape.org/namespaces/inkscape"
   xmlns:sodipodi="http://sodipodi.sourceforge.net/DTD/sodipodi-0.dtd"
   xmlns="http://www.w3.org/2000/svg"
   xmlns:svg="http://www.w3.org/2000/svg"><sodipodi:namedview
     id="namedview1"
     pagecolor="#ffffff"
     bordercolor="#000000"
     borderopacity="0.25"
     inkscape:showpageshadow="2"
     inkscape:pageopacity="0.0"
     inkscape:pagecheckerboard="0"
     inkscape:deskcolor="#d1d1d1"
     inkscape:document-units="mm"
     inkscape:zoom="0.74208052"
     inkscape:cx="258.73203"
     inkscape:cy="518.13784"
     inkscape:window-width="1920"
     inkscape:window-height="1009"
     inkscape:window-x="-8"
     inkscape:window-y="-8"
     inkscape:window-maximized="1"
     inkscape:current-layer="g263"
     inkscape:export-bgcolor="#ffffff00" /><defs
     id="defs1"><inkscape:path-effect
       effect="simplify"
       id="path-effect267"
       is_visible="true"
       lpeversion="1.3"
       threshold="60.123036"
       steps="30.895833"
       smooth_angles="292.5"
       helper_size="10"
       simplify_individual_paths="false"
       simplify_just_coalesce="false" /><inkscape:path-effect
       effect="simplify"
       id="path-effect266"
       is_visible="true"
       lpeversion="1.3"
       threshold="78.573571"
       steps="1"
       smooth_angles="360"
       helper_size="10"
       simplify_individual_paths="false"
       simplify_just_coalesce="false" /><inkscape:path-effect
       effect="simplify"
       id="path-effect265"
       is_visible="true"
       lpeversion="1.3"
       threshold="16.079821"
       steps="8.5833333"
       smooth_angles="360"
       helper_size="10"
       simplify_individual_paths="false"
       simplify_just_coalesce="false" /></defs><g
     inkscape:groupmode="layer"
     id="layer1"
     inkscape:label="Layer 1"
     transform="translate(-12.37097,-32.464049)"><g
       id="g263"
       transform="translate(57.596599,-13.002078)"><path
         id="path263"
         style="display:inline;fill:#113139;stroke-width:1.24856"
         d="m 62.953512,53.666607 c 13.164309,8.098231 18.517791,30.432924 22.820485,38.145362 5.89325,11.293931 10.053344,21.767431 9.757188,34.930081 -2.072072,10.001 -10.749329,8.04967 -17.267015,3.51354 -6.583731,-5.94799 -23.672192,-15.49924 -29.19463,-8.77599 -6.657858,6.60222 -7.147321,22.63619 1.558508,27.80036 10.980241,6.71292 28.420209,2.99554 40.847944,1.17737 10.403178,-2.05052 14.798608,6.74599 18.252658,11.95206 10.03042,16.07616 13.82073,33.85664 25.90649,49.33097 10.57026,3.66862 11.63672,22.8299 -1.7428,20.91524 -12.77707,-2.1984 -24.15671,-17.01984 -29.50745,-24.5466 -5.830421,-9.49785 -7.918748,-21.30617 -21.052829,-27.23632 -12.601566,-6.47448 -31.081248,-5.5663 -42.315598,2.06792 -7.756628,4.94651 -12.144709,11.80654 -18.487427,17.59116 -7.63026,7.77146 -15.2605189,15.54294 -22.89077717,23.31442 -6.77467603,4.85223 -21.44074783,8.30958 -28.88328683,2.78128 -5.082178,-6.18129 5.341632,-9.9382 10.181552,-11.70349 C 1.1503838,182.05314 3.7327678,136.27243 21.592118,102.82182 28.580775,91.444804 34.495789,69.858874 41.967962,60.126852 46.833338,52.77046 54.888428,49.560092 62.953512,53.666607 Z m 0.126302,49.932473 c -5.545703,7.92462 10.12869,13.08247 13.524274,5.02088 4.091367,-7.68273 -8.258704,-12.486446 -13.524274,-5.02088 z"
         sodipodi:nodetypes="ccccccccccccccccccccccc"
         inkscape:export-filename="path263.svg"
         inkscape:export-xdpi="96"
         inkscape:export-ydpi="96" /></g></g></svg>
